<svg xmlns="http://www.w3.org/2000/svg" version="1.1" xmlns:xlink="http://www.w3.org/1999/xlink" xmlns:svgjs="http://svgjs.dev/svgjs" width="1500" height="1500" viewBox="0 0 1500 1500"><rect width="1500" height="1500" fill="#000000"></rect><g transform="matrix(0.6666666666666666,0,0,0.6666666666666666,249.39403246402293,464.3455150737212)"><svg viewBox="0 0 396 226" data-background-color="#ffffff" preserveAspectRatio="xMidYMid meet" height="856" width="1500" xmlns="http://www.w3.org/2000/svg" xmlns:xlink="http://www.w3.org/1999/xlink"><g id="tight-bounds" transform="matrix(1,0,0,1,0.24004568764650003,0.12731068413427238)"><svg viewBox="0 0 395.52 225.74545499234182" height="225.74545499234182" width="395.52"><g><svg viewBox="0 0 395.52 225.74545499234182" height="225.74545499234182" width="395.52"><g><svg viewBox="0 0 395.52 225.74545499234182" height="225.74545499234182" width="395.52"><g id="textblocktransform"><svg viewBox="0 0 395.52 225.74545499234182" height="225.74545499234182" width="395.52" id="textblock"><g><svg viewBox="0 0 395.52 225.74545499234182" height="225.74545499234182" width="395.52"><g transform="matrix(1,0,0,1,0,0)"><svg width="395.52" viewBox="0.860625 -30.6721875 81.90121408045975 46.757395866652" height="225.74545499234182" data-palette-color="#bf4153"><path d="M1.75 2.65L1.75 2.65Q0.95 0.95 0.88-0.8 0.8-2.55 1.05-4.35L1.05-4.35Q1.1-4.95 1.25-6.08 1.4-7.2 1.6-8.58 1.8-9.95 2.05-11.5 2.3-13.05 2.5-14.43 2.7-15.8 2.88-16.85 3.05-17.9 3.15-18.45L3.15-18.45Q3.45-20.15 3.85-21.35 4.25-22.55 4.93-23.2 5.6-23.85 6.68-23.9 7.75-23.95 9.45-23.35L9.45-23.35Q9.65-23.3 9.9-23.03 10.15-22.75 10.15-22.7L10.15-22.7Q10.25-22.15 10.48-21.05 10.7-19.95 10.98-18.55 11.25-17.15 11.58-15.65 11.9-14.15 12.15-12.75 12.4-11.35 12.63-10.25 12.85-9.15 13-8.6L13-8.6Q13.6-5.75 14.5-4.63 15.4-3.5 16.4-3.45 17.4-3.4 18.5-4.13 19.6-4.85 20.63-5.65 21.65-6.45 22.6-7 23.55-7.55 24.2-7.2L24.2-7.2Q24.2-6.45 23.85-5.73 23.5-5 22.98-4.38 22.45-3.75 21.85-3.2 21.25-2.65 20.75-2.3L20.75-2.3Q18.45-0.8 16.95-0.73 15.45-0.65 14.38-1.4 13.3-2.15 12.65-3.5 12-4.85 11.53-6.23 11.05-7.6 10.58-8.68 10.1-9.75 9.45-10.05L9.45-10.05Q9.3-9.5 8.93-8.22 8.55-6.95 8.1-5.48 7.65-4 7.25-2.7 6.85-1.4 6.65-0.9L6.65-0.9Q6.6-0.7 6.35-0.13 6.1 0.45 5.68 1.13 5.25 1.8 4.75 2.43 4.25 3.05 3.73 3.4 3.2 3.75 2.68 3.63 2.15 3.5 1.75 2.65ZM3.85-9.3L3.85-9.3Q3.8-8.8 3.78-7.5 3.75-6.2 3.75-4.78 3.75-3.35 3.78-2.02 3.8-0.7 3.85-0.2L3.85-0.2Q5.25-2.35 6.38-5.2 7.5-8.05 8.1-11.13 8.7-14.2 8.58-17.2 8.45-20.2 7.4-22.7L7.4-22.7Q6.65-21.4 6.05-19.5 5.45-17.6 5.03-15.65 4.6-13.7 4.28-11.95 3.95-10.2 3.85-9.3ZM37.75 15.25L37.75 15.25Q36.75 14.6 36.37 13.48 36 12.35 36.02 10.98 36.05 9.6 36.42 8.08 36.8 6.55 37.27 5.13 37.75 3.7 38.27 2.48 38.8 1.25 39.2 0.5L39.2 0.5Q39.3 0.15 39.7-0.63 40.1-1.4 40.55-2.4L40.55-2.4 42.55-6.45Q43.05-7.4 43.45-8.18 43.85-8.95 44.1-9.3L44.1-9.3Q44.25-11.2 43.8-12.3 43.35-13.4 42.5-13.8 41.65-14.2 40.52-14 39.4-13.8 38.25-13.15 37.1-12.5 36.02-11.53 34.95-10.55 34.25-9.3L34.25-9.3Q34-9.1 33.4-8.35 32.8-7.6 31.95-6.53 31.1-5.45 30.05-4.2 29-2.95 27.92-1.75 26.85-0.55 25.82 0.48 24.8 1.5 23.95 2.05 23.1 2.6 22.47 2.65 21.85 2.7 21.6 1.9L21.6 1.9Q21.55 1.9 21.52 1.7 21.5 1.5 21.5 1.28 21.5 1.05 21.52 0.85 21.55 0.65 21.6 0.5L21.6 0.5Q21.65 0.1 21.92-1.2 22.2-2.5 22.55-4.25 22.9-6 23.3-7.98 23.7-9.95 24.02-11.7 24.35-13.45 24.65-14.73 24.95-16 25.1-16.4L25.1-16.4Q25.15-16.75 25.6-17.35 26.05-17.95 26.6-18.35 27.15-18.75 27.72-18.73 28.3-18.7 28.6-17.8L28.6-17.8Q28.2-17.2 27.67-15.93 27.15-14.65 26.65-13.03 26.15-11.4 25.65-9.6 25.15-7.8 24.8-6.13 24.45-4.45 24.35-3.05 24.25-1.65 24.35-0.9L24.35-0.9Q26.1-3.2 28.2-5.78 30.3-8.35 32.5-10.68 34.7-13 36.85-14.7 39-16.4 40.85-16.88 42.7-17.35 44.1-16.32 45.5-15.3 46.2-12.15L46.2-12.15 51.1-16.35 53.2-16.35Q53.6-15.2 53.2-14.8 52.8-14.4 52.07-14.18 51.35-13.95 50.47-13.7 49.6-13.45 49.02-12.65 48.45-11.85 48.32-10.25 48.2-8.65 49-5.75L49-5.75Q49.55-3.75 49.77-1.6 50 0.55 49.7 2.65L49.7 2.65Q49.55 3.55 49.07 5.15 48.6 6.75 47.77 8.5 46.95 10.25 45.85 11.93 44.75 13.6 43.47 14.68 42.2 15.75 40.75 16.03 39.3 16.3 37.75 15.25ZM38.45 11.75L38.45 11.75Q38.75 13.3 39.5 13.7 40.25 14.1 41.22 13.63 42.2 13.15 43.27 11.88 44.35 10.6 45.27 8.88 46.2 7.15 46.82 5.03 47.45 2.9 47.6 0.65 47.75-1.6 47.27-3.8 46.8-6 45.45-7.9L45.45-7.9Q44.55-7.25 43.6-5.83 42.65-4.4 41.82-2.58 41-0.75 40.27 1.3 39.55 3.35 39.07 5.3 38.6 7.25 38.42 8.95 38.25 10.65 38.45 11.75ZM52.8 1.2L52.8 1.2Q52.75 1.1 52.62 0.63 52.5 0.15 52.37-0.43 52.25-1 52.17-1.53 52.1-2.05 52.1-2.3L52.1-2.3 52.1-21.95Q52.1-22.35 52.45-22.55 52.8-22.75 53.27-22.75 53.75-22.75 54.12-22.73 54.5-22.7 54.55-22.7L54.55-22.7 54.55-0.9Q54.55-0.2 55 0.25 55.45 0.7 56.05 0.95 56.65 1.2 57.3 1.28 57.95 1.35 58.4 1.2L58.4 1.2Q58.95 2.05 58.37 2.58 57.8 3.1 56.72 3.15 55.65 3.2 54.5 2.75 53.35 2.3 52.8 1.2ZM51.4-29.05L51.4-29.05Q51.4-30.2 52.32-30.53 53.25-30.85 54.25-30.45L54.25-30.45 54.25-28.3Q54.1-28.25 53.8-28.23 53.5-28.2 53.15-28.2 52.8-28.2 52.5-28.23 52.2-28.25 52.1-28.3L52.1-28.3Q51.95-28.35 51.67-28.63 51.4-28.9 51.4-29.05ZM67.89 2.65L67.89 2.65Q66.19 1.3 65.22-0.5 64.24-2.3 63.74-4.35L63.74-4.35Q63.44-4.15 62.97-3.93 62.49-3.7 61.99-3.53 61.49-3.35 60.99-3.3 60.49-3.25 60.29-3.4 60.09-3.55 60.17-3.93 60.24-4.3 60.89-5.1L60.89-5.1Q60.99-5.2 61.42-5.63 61.84-6.05 62.34-6.53 62.84-7 63.24-7.4 63.64-7.8 63.74-7.9L63.74-7.9Q64.14-8.95 64.24-10.18 64.34-11.4 64.37-12.7 64.39-14 64.52-15.3 64.64-16.6 65.14-17.75L65.14-17.75Q65.39-18.35 66.17-19.33 66.94-20.3 67.97-21.18 68.99-22.05 69.99-22.78 70.99-23.5 71.77-23.65 72.54-23.8 72.89-23.28 73.24-22.75 72.84-21.25L72.84-21.25Q72.39-19.5 71.49-17.8 70.59-16.1 69.62-14.48 68.64-12.85 67.79-11.23 66.94-9.6 66.54-7.9L66.54-7.9Q66.34-7 66.34-5.75 66.34-4.5 66.64-3.25 66.94-2 67.57-0.95 68.19 0.1 69.34 0.5L69.34 0.5Q70.59 1 71.92 0.75 73.24 0.5 74.47-0.2 75.69-0.9 76.82-1.93 77.94-2.95 78.94-4.05 79.94-5.15 80.69-6.18 81.44-7.2 81.94-7.9L81.94-7.9 82.69-7.2Q82.94-7 82.32-5.85 81.69-4.7 80.49-3.25 79.29-1.8 77.67-0.33 76.04 1.15 74.34 2.18 72.64 3.2 70.94 3.45 69.24 3.7 67.89 2.65ZM66.54-15L66.54-15Q66.49-14.75 66.49-14.25 66.49-13.75 66.49-13.2 66.49-12.65 66.49-12.15 66.49-11.65 66.54-11.45L66.54-11.45Q67.84-13.7 68.97-16.2 70.09-18.7 70.74-21.25L70.74-21.25Q69.79-20.95 69.04-20.28 68.29-19.6 67.79-18.73 67.29-17.85 66.97-16.88 66.64-15.9 66.54-15Z" opacity="1" transform="matrix(1,0,0,1,0,0)" fill="#ffffff" class="wordmark-text-0" data-fill-palette-color="primary" id="text-0"></path></svg></g></svg></g></svg></g></svg></g><g></g></svg></g><defs></defs></svg><rect width="395.52" height="225.74545499234182" fill="none" stroke="none" visibility="hidden"></rect></g></svg></g></svg>